#!OML:ASF E:\Style4\Style4.ASF
:FULLY-SPECIFIED
:DEGREES
1357
root 0.799662 17.5805 -0.405414 2.99566 -7.78455 6.67999
lowerback 4.10115 2.01091 2.68107
upperback -1.64992 2.85906 0.610655
thorax -3.90185 1.36083 -1.08088
lowerneck 2.89222 -1.98867 -5.74069
upperneck 5.91579 -2.83976 2.21777
head 1.48456 -1.50834 1.66135
rclavicle -1.55052e-014 -6.36111e-015
rhumerus -86.921 54.0213 -121.065
rradius 85.5595
rwrist -1.69904
rhand -3.5944 32.4539
rfingers 7.12502
rthumb 22.1434 3.70204
lclavicle -1.55052e-014 -6.36111e-015
lhumerus -28.2463 22.3095 22.137
lradius 111.897
lwrist -15.4995
lhand -11.4949 35.1813
lfingers 7.12502
lthumb 14.5437 64.6515
rfemur -18.5477 6.59416 7.69838
rtibia 38.5137
rfoot -22.3203 -10.9554
rtoes -16.609
lfemur -11.6103 1.3143 -29.3906
ltibia 30.209
lfoot -23.2431 11.0643
ltoes -10.4395
1358
root 0.779047 17.5896 -0.403704 2.98409 -7.72317 6.63329
lowerback 4.1036 1.99759 2.55302
upperback -1.68416 2.83304 0.557906
thorax -3.94294 1.34967 -1.0629
lowerneck 2.92195 -1.99607 -5.77268
upperneck 5.95227 -2.8563 2.31574
head 1.49455 -1.51661 1.69905
rclavicle 2.51711e-014 -1.90833e-014
rhumerus -86.9214 53.9322 -121.047
rradius 85.5378
rwrist -1.57874
rhand -3.74887 32.5635
rfingers 7.12502
rthumb 21.9951 3.79409
lclavicle 2.51711e-014 -1.90833e-014
lhumerus -28.2891 22.2685 22.1775
lradius 111.88
lwrist -15.5671
lhand -11.528 35.3089
lfingers 7.12502
lthumb 14.5118 64.7813
rfemur -18.355 6.61472 7.8387
rtibia 38.2351
rfoot -22.1937 -11.0428
rtoes -16.6606
lfemur -11.4292 1.18424 -29.2713
ltibia 29.9551
lfoot -23.1179 11.1507
ltoes -10.5502
1359
root 0.758829 17.6014 -0.398335 2.95116 -7.67575 6.54649
lowerback 4.07555 1.99071 2.49417
upperback -1.69868 2.81758 0.49317
thorax -3.94212 1.34264 -1.09485
lowerneck 2.90634 -2.01312 -5.8012
upperneck 6.05283 -2.88235 2.39
head 1.53287 -1.5304 1.72799
rclavicle 1.62258e-014 -3.49861e-014
rhumerus -86.8794 53.8178 -121.015
rradius 85.5047
rwrist -1.57177
rhand -3.70059 32.5864
rfingers 7.12502
rthumb 22.0414 3.82246
lclavicle 1.62258e-014 -3.49861e-014
lhumerus -28.3084 22.2838 22.1985
lradius 111.858
lwrist -15.5134
lhand -11.4213 35.1219
lfingers 7.12502
lthumb 14.6146 64.587
rfemur -18.1019 6.59068 8.02444
rtibia 37.9358
rfoot -22.0986 -11.0482
rtoes -16.8309
lfemur -11.1934 1.04371 -29.113
ltibia 29.6879
lfoot -23.0413 11.2566
ltoes -10.6273
1360
root 0.736674 17.6151 -0.394903 2.92337 -7.62471 6.41333
lowerback 4.07713 1.96907 2.43971
upperback -1.72522 2.78429 0.439304
thorax -3.97152 1.32621 -1.11829
lowerneck 2.88252 -2.01349 -5.78022
upperneck 6.14894 -2.885 2.4625
head 1.56911 -1.53132 1.74769
rclavicle -2.08724e-015 2.70347e-014
rhumerus -86.9581 53.7489 -121.126
rradius 85.4893
rwrist -1.5468
rhand -3.65219 32.4345
rfingers 7.12502
rthumb 22.0879 3.67601
lclavicle -2.08724e-015 2.70347e-014
lhumerus -28.3468 22.2954 22.1515
lradius 111.857
lwrist -15.435
lhand -11.4126 34.9886
lfingers 7.12502
lthumb 14.623 64.453
rfemur -17.8203 6.58345 8.27346
rtibia 37.5989
rfoot -21.9874 -11.078
rtoes -17.0873
lfemur -10.9755 0.898251 -28.8922
ltibia 29.4218
lfoot -22.9393 11.3977
ltoes -10.6431
1361
root 0.71168 17.6277 -0.39163 2.92686 -7.56648 6.28118
lowerback 4.05636 1.95105 2.3353
upperback -1.74554 2.75286 0.405039
thorax -3.98496 1.31258 -1.09277
lowerneck 2.81444 -2.00452 -5.78486
upperneck 6.23165 -2.87227 2.52
head 1.60831 -1.52487 1.76686
rclavicle -2.75814e-015 -3.97569e-014
rhumerus -87.0323 53.679 -121.203
rradius 85.4329
rwrist -1.36572
rhand -3.80794 32.2958
rfingers 7.12502
rthumb 21.9384 3.51976
lclavicle -2.75814e-015 -3.97569e-014
lhumerus -28.4186 22.2813 22.1478
lradius 111.876
lwrist -15.4201
lhand -11.6006 35.182
lfingers 7.12502
lthumb 14.4418 64.6595
rfemur -17.5523 6.59175 8.53639
rtibia 37.2272
rfoot -21.8114 -11.24
rtoes -17.3886
lfemur -10.7958 0.758561 -28.6636
ltibia 29.1722
lfoot -22.8475 11.5065
ltoes -10.7479
